<?xml version="1.0" encoding="utf-8"?>
<!-- Generator: Adobe Illustrator 27.0.0, SVG Export Plug-In . SVG Version: 6.00 Build 0)  -->
<svg version="1.1" id="Layer_1" xmlns="http://www.w3.org/2000/svg" xmlns:xlink="http://www.w3.org/1999/xlink" x="0px" y="0px"
	 viewBox="0 0 140 140" style="enable-background:new 0 0 140 140;" xml:space="preserve">
<style type="text/css">
	.st0{fill:#CCCCCC;}
	.st1{fill:#FF0089;}
	.st2{fill:#A7358D;}
</style>
<g>
	<g>
		<path d="M30.4,113.3l-9.3,4.2l-1.7-2l4-5.8l-6.3,3.1l-1.7-2l5.6-8.5l1.6,1.9l-4.5,6.1l6.9-3.4l1.7,2l-4.4,6.2l6.8-3.5L30.4,113.3z
			"/>
		<path d="M33.4,115.3l-6.3,7.4l-1.9-1.6l6.3-7.4L33.4,115.3z M32.6,112.6c0-0.4,0.1-0.8,0.3-1.1c0.3-0.3,0.6-0.5,1-0.5
			c0.4,0,0.8,0.1,1.1,0.4c0.3,0.3,0.5,0.6,0.6,1c0,0.4-0.1,0.8-0.3,1.1c-0.3,0.3-0.6,0.5-1,0.5c-0.4,0-0.8-0.1-1.1-0.4
			C32.8,113.3,32.7,113,32.6,112.6z"/>
		<path d="M36.3,119.9l-2.7,3.9c-0.2,0.3-0.3,0.5-0.2,0.7c0,0.2,0.2,0.4,0.5,0.6l0.9,0.7l-1.2,1.7l-1.3-0.9c-1.7-1.2-2-2.6-0.8-4.3
			l2.7-3.9l-1-0.7l1.2-1.7l1,0.7l1.4-2l2,1.4l-1.4,2l1.8,1.2l-1.2,1.7L36.3,119.9z"/>
		<path d="M47,124c0.4,0.5,0.6,1.2,0.6,1.9c0,0.7-0.2,1.5-0.6,2.2l-2.5,5.1l-2.2-1.1l2.4-4.8c0.3-0.7,0.4-1.3,0.3-1.9
			c-0.2-0.5-0.6-1-1.2-1.3c-0.6-0.3-1.2-0.3-1.7-0.1c-0.5,0.2-1,0.7-1.3,1.3l-2.4,4.8l-2.2-1.1l5.7-11.7l2.2,1.1l-2,4
			c0.5-0.2,1-0.4,1.6-0.3c0.6,0,1.2,0.2,1.7,0.4C46.1,123,46.6,123.4,47,124z"/>
		<path d="M65.8,125.9l-6.6,11.3l-2.9-0.5L54,123.7l2.6,0.5l1.6,10.2l5.1-9L65.8,125.9z"/>
		<path d="M66.5,130.5c0.4-0.8,0.9-1.4,1.6-1.8c0.7-0.4,1.4-0.6,2.2-0.7c0.7,0,1.4,0.1,1.9,0.4c0.6,0.3,1,0.6,1.3,1.1l0-1.4l2.5-0.1
			l0.2,9.7l-2.5,0.1l0-1.4c-0.3,0.5-0.7,0.9-1.3,1.2c-0.6,0.3-1.2,0.5-1.9,0.5c-0.8,0-1.6-0.2-2.3-0.6c-0.7-0.4-1.2-1-1.6-1.8
			c-0.4-0.8-0.6-1.6-0.6-2.6C65.9,132.2,66.1,131.3,66.5,130.5z M73.2,131.5c-0.2-0.4-0.6-0.7-1-1c-0.4-0.2-0.8-0.3-1.3-0.3
			c-0.5,0-0.9,0.1-1.3,0.4c-0.4,0.2-0.7,0.6-0.9,1c-0.2,0.4-0.3,0.9-0.3,1.5c0,0.6,0.1,1.1,0.4,1.5c0.3,0.4,0.6,0.8,1,1
			s0.8,0.3,1.3,0.3c0.5,0,0.9-0.1,1.3-0.4c0.4-0.2,0.7-0.6,0.9-1c0.2-0.4,0.3-0.9,0.3-1.5S73.4,131.9,73.2,131.5z"/>
		<path d="M78.4,130c0.2-0.8,0.7-1.5,1.3-2.1c0.6-0.6,1.4-0.9,2.3-1.1c1.2-0.2,2.2-0.2,3.1,0.3c0.9,0.4,1.6,1.1,2.1,2.2l-2.6,0.5
			c-0.2-0.4-0.5-0.7-0.9-0.8c-0.4-0.2-0.8-0.2-1.3-0.1c-0.7,0.1-1.2,0.5-1.5,1.1c-0.3,0.6-0.3,1.3-0.2,2.3c0.2,0.9,0.5,1.6,1,2
			c0.5,0.4,1.1,0.6,1.8,0.4c1-0.2,1.5-0.8,1.6-1.7l2.6-0.5c0,1.1-0.4,2-1.1,2.8c-0.7,0.8-1.6,1.3-2.7,1.5c-0.9,0.2-1.8,0.2-2.6-0.1
			c-0.8-0.3-1.5-0.7-2-1.4c-0.6-0.7-0.9-1.5-1.1-2.5C78.2,131.7,78.2,130.8,78.4,130z"/>
		<path d="M96.5,122.1l3.7,9l-2.3,0.9l-0.5-1.1c-0.1,0.5-0.4,1-0.8,1.4c-0.4,0.4-0.8,0.7-1.4,1c-0.7,0.3-1.4,0.4-2.1,0.3
			c-0.7-0.1-1.3-0.3-1.8-0.8c-0.5-0.5-1-1.1-1.3-1.9l-2.2-5.3l2.3-0.9l2,5c0.3,0.7,0.7,1.2,1.2,1.4c0.5,0.2,1.1,0.2,1.7,0
			c0.6-0.3,1-0.7,1.2-1.2s0.1-1.2-0.1-1.9l-2-5L96.5,122.1z"/>
		<path d="M106,116l5.4,8.1l-2.1,1.4l-0.7-1c0,0.5-0.2,1-0.5,1.5s-0.7,0.9-1.2,1.2c-0.6,0.4-1.3,0.7-2,0.7c-0.7,0.1-1.3-0.1-1.9-0.4
			c-0.6-0.3-1.2-0.9-1.7-1.6l-3.2-4.8l2.1-1.4l3,4.5c0.4,0.6,0.9,1,1.5,1.2c0.6,0.1,1.1,0,1.7-0.4c0.6-0.4,0.9-0.8,1-1.4
			c0.1-0.6-0.1-1.2-0.5-1.8l-3-4.5L106,116z"/>
		<path d="M118.5,104.6c1,0,2,0.4,3,1.3l4.2,3.8l-1.7,1.8l-4-3.6c-0.6-0.5-1.1-0.8-1.7-0.7c-0.6,0-1.1,0.3-1.5,0.8
			c-0.4,0.5-0.7,1-0.6,1.6c0,0.6,0.3,1.1,0.9,1.6l4,3.6l-1.7,1.8l-4-3.6c-0.6-0.5-1.1-0.8-1.7-0.7c-0.6,0-1.1,0.3-1.5,0.8
			c-0.5,0.5-0.7,1-0.6,1.6c0,0.6,0.3,1.1,0.9,1.6l4,3.6l-1.7,1.8l-7.2-6.6l1.7-1.8l0.9,0.8c-0.1-0.5-0.1-1,0.1-1.6
			c0.2-0.5,0.4-1,0.8-1.5c0.5-0.6,1.1-1,1.7-1.2c0.6-0.2,1.3-0.3,2-0.1c-0.2-0.6-0.2-1.3-0.1-1.9c0.2-0.7,0.5-1.3,0.9-1.8
			C116.6,105.1,117.5,104.7,118.5,104.6z"/>
	</g>
	<g>
		<path d="M23.3,38.5l-1.2,2.1l-9.7,0.7l7.1,4l-1.2,2.1L8.1,41.5l1.2-2.1l9.7-0.7l-7.1-4l1.2-2.1L23.3,38.5z"/>
		<path d="M25.2,35.4c-0.8,0.3-1.6,0.4-2.4,0.2c-0.8-0.2-1.6-0.6-2.3-1.2c-0.7-0.6-1.2-1.3-1.5-2.1c-0.3-0.8-0.3-1.6-0.2-2.4
			c0.2-0.8,0.6-1.6,1.1-2.3s1.3-1.2,2.1-1.5c0.8-0.3,1.6-0.4,2.4-0.2c0.8,0.2,1.6,0.5,2.3,1.2c0.7,0.6,1.2,1.3,1.5,2.1
			c0.3,0.8,0.3,1.6,0.1,2.4c-0.2,0.8-0.6,1.6-1.2,2.3C26.7,34.6,26,35.1,25.2,35.4z M26.2,31.5c0.1-0.4,0-0.9-0.1-1.3
			c-0.2-0.4-0.5-0.9-0.9-1.2c-0.7-0.6-1.4-0.8-2-0.8c-0.7,0-1.2,0.3-1.7,0.8c-0.4,0.5-0.6,1.1-0.6,1.8c0.1,0.7,0.4,1.3,1.1,1.9
			c0.7,0.6,1.3,0.9,2,0.8c0.7,0,1.2-0.3,1.6-0.8C26,32.3,26.2,31.9,26.2,31.5z"/>
		<path d="M28.1,20.1c0.2-0.5,0.5-1,1-1.4l1.6,1.9L30.3,21c-0.6,0.5-0.9,1-0.9,1.5c-0.1,0.5,0.2,1.1,0.8,1.8l3.1,3.5l-1.8,1.6
			l-6.2-7.1l1.8-1.6l1,1.1C27.9,21.2,27.9,20.6,28.1,20.1z"/>
		<path d="M44.5,10.4c1,0.3,1.7,1,2.4,2.1l2.7,4.8l-2.1,1.2l-2.5-4.5c-0.4-0.6-0.8-1-1.3-1.2S42.5,12.7,42,13
			c-0.6,0.3-0.9,0.7-1.1,1.3c-0.1,0.5,0,1.1,0.3,1.7l2.5,4.5l-2.1,1.2l-2.5-4.5c-0.4-0.6-0.8-1-1.3-1.2c-0.5-0.2-1.1-0.1-1.6,0.2
			c-0.6,0.3-0.9,0.7-1.1,1.3c-0.1,0.5,0,1.1,0.3,1.7l2.5,4.5l-2.1,1.2l-4.6-8.2l2.1-1.2l0.6,1c0.1-0.5,0.3-1,0.6-1.4
			c0.3-0.4,0.7-0.8,1.2-1.1c0.6-0.4,1.3-0.5,1.9-0.5c0.7,0,1.3,0.2,1.8,0.5c0-0.6,0.2-1.2,0.5-1.8c0.3-0.6,0.8-1,1.4-1.3
			C42.5,10.3,43.5,10.2,44.5,10.4z"/>
		<path d="M49.3,10.1c0.2-0.8,0.5-1.5,1.1-2c0.5-0.5,1.2-0.9,2-1.1c0.7-0.2,1.3-0.2,1.9-0.1c0.6,0.1,1.1,0.4,1.5,0.7l-0.3-1.3
			l2.3-0.6l2.4,9.1l-2.3,0.6L57.4,14c-0.2,0.5-0.5,1-0.9,1.4c-0.4,0.4-1,0.7-1.7,0.9c-0.8,0.2-1.5,0.2-2.2,0
			c-0.7-0.2-1.4-0.7-1.9-1.3c-0.6-0.6-1-1.4-1.2-2.3C49.1,11.7,49.1,10.9,49.3,10.1z M55.8,9.5c-0.3-0.3-0.7-0.6-1.1-0.7
			c-0.4-0.1-0.9-0.1-1.3,0c-0.4,0.1-0.8,0.3-1.1,0.6c-0.3,0.3-0.5,0.7-0.6,1.1c-0.1,0.5-0.1,1,0,1.5c0.1,0.5,0.4,1,0.7,1.3
			c0.3,0.4,0.7,0.6,1.1,0.7c0.4,0.1,0.8,0.1,1.3,0c0.4-0.1,0.8-0.3,1.1-0.6c0.3-0.3,0.5-0.7,0.6-1.2s0.1-1-0.1-1.5
			C56.4,10.3,56.1,9.8,55.8,9.5z"/>
		<path d="M62.9,1.9l1.5,12.4L62,14.6L60.5,2.2L62.9,1.9z"/>
		<path d="M78.5,3.4c0.9,0.6,1.6,1.3,2,2.3c0.4,0.9,0.6,2,0.5,3.2c-0.1,1.2-0.5,2.2-1,3c-0.6,0.8-1.4,1.5-2.4,1.9
			c-1,0.4-2.1,0.5-3.3,0.4l-4.1-0.4l1-11.8l4.1,0.4C76.6,2.5,77.6,2.9,78.5,3.4z M77.3,11.4c0.7-0.6,1.2-1.5,1.3-2.8
			c0.1-1.2-0.1-2.2-0.8-3c-0.6-0.8-1.5-1.2-2.8-1.3l-1.7-0.1L72.7,12l1.7,0.1C75.6,12.3,76.6,12,77.3,11.4z"/>
		<path d="M91.1,13.7l-6.6-1.9c-0.1,0.7-0.1,1.2,0.2,1.7c0.3,0.5,0.7,0.8,1.3,1c0.8,0.2,1.6,0.1,2.1-0.6l2.5,0.7
			c-0.5,0.8-1.2,1.4-2.1,1.7c-0.9,0.3-1.9,0.4-3,0.1c-0.9-0.3-1.6-0.7-2.2-1.3c-0.6-0.6-1-1.3-1.1-2.1c-0.2-0.8-0.1-1.7,0.1-2.6
			c0.3-0.9,0.7-1.7,1.3-2.3c0.6-0.6,1.3-1,2.1-1.2c0.8-0.2,1.6-0.1,2.5,0.1c0.9,0.2,1.6,0.7,2.1,1.2c0.6,0.6,0.9,1.2,1.1,2
			c0.2,0.8,0.1,1.6-0.1,2.5C91.4,13.2,91.3,13.4,91.1,13.7z M89.3,11.5c0.2-0.6,0.1-1.1-0.2-1.6c-0.3-0.5-0.8-0.8-1.4-1
			c-0.6-0.2-1.1-0.1-1.6,0.1c-0.5,0.2-0.9,0.6-1.1,1.2L89.3,11.5z"/>
		<path d="M98.5,7.7l-5,11.5l-2.2-0.9l5-11.5L98.5,7.7z"/>
		<path d="M101.9,12.9l-4.4,8.3l-2.1-1.1l4.4-8.3L101.9,12.9z M100.7,10.5c-0.1-0.4-0.1-0.7,0.1-1.1c0.2-0.3,0.5-0.6,0.8-0.7
			c0.4-0.1,0.7-0.1,1.1,0.1c0.4,0.2,0.6,0.5,0.7,0.8c0.1,0.4,0.1,0.7-0.1,1.1c-0.2,0.3-0.5,0.6-0.8,0.7c-0.4,0.1-0.7,0.1-1.1-0.1
			C101,11.2,100.8,10.9,100.7,10.5z"/>
		<path d="M103.7,22.6l6.1-4.5l2.1,1.5l-8.3,5.7l-2.4-1.7l2.6-9.7l2.1,1.5L103.7,22.6z"/>
		<path d="M116,31.2l-4.8-4.9c-0.4,0.5-0.7,1.1-0.6,1.6s0.2,1.1,0.7,1.5c0.6,0.6,1.3,0.8,2.1,0.5l1.8,1.8c-0.8,0.4-1.7,0.6-2.7,0.5
			c-1-0.1-1.8-0.6-2.6-1.4c-0.6-0.6-1.1-1.4-1.3-2.1c-0.2-0.8-0.2-1.6,0-2.4c0.2-0.8,0.7-1.5,1.4-2.2c0.7-0.7,1.4-1.1,2.2-1.4
			c0.8-0.2,1.6-0.2,2.4,0c0.8,0.2,1.5,0.7,2.2,1.3c0.6,0.6,1.1,1.3,1.3,2.1c0.2,0.8,0.2,1.5,0,2.3c-0.2,0.8-0.7,1.5-1.3,2.1
			C116.5,30.8,116.2,31,116,31.2z M115.5,28.3c0.4-0.4,0.6-0.9,0.6-1.5c0-0.6-0.3-1.1-0.7-1.5c-0.4-0.4-0.9-0.6-1.4-0.7
			c-0.5,0-1.1,0.1-1.6,0.5L115.5,28.3z"/>
		<path d="M123.4,32.6c0.5,0.2,1,0.6,1.3,1.1l-2,1.5l-0.4-0.5c-0.4-0.6-0.9-0.9-1.4-1c-0.5-0.1-1.1,0.1-1.8,0.6l-3.8,2.8l-1.4-1.9
			l7.6-5.6l1.4,1.9l-1.2,0.9C122.4,32.3,122.9,32.4,123.4,32.6z"/>
		<path d="M130.3,43.9l-14.9,1.4l-1.2-2.2l5.1-0.4l6.3-7.6l1.3,2.3l-4.6,5.2l6.9-0.9L130.3,43.9z"/>
	</g>
	<g>
		<path class="st0" d="M130.6,101.1l-2.2-1.2c4.8-9.4,7.3-19.5,7.3-30c0-7.1-1.1-14.1-3.4-20.9l2.4-0.8c2.3,7,3.5,14.3,3.5,21.7
			C138.1,80.9,135.6,91.4,130.6,101.1z"/>
		<path class="st0" d="M122.1,96.7l-2.2-1.2c4.1-8,6.2-16.6,6.2-25.6c0-6.1-1-12-2.9-17.8l2.4-0.8c2,6,3,12.3,3,18.6
			C128.6,79.4,126.4,88.4,122.1,96.7z"/>
		<path class="st0" d="M9.6,101.4C4.5,91.6,1.9,81,1.9,70c0-7.5,1.2-14.8,3.6-21.9l2.4,0.8C5.6,55.7,4.4,62.8,4.4,70
			c0,10.7,2.5,20.9,7.4,30.3L9.6,101.4z"/>
		<path class="st0" d="M18,97.1c-4.4-8.3-6.7-17.7-6.7-27.1c0-6.4,1.1-12.8,3.1-18.9l2.4,0.8c-2,5.8-3,11.9-3,18.1
			c0,9.1,2.1,17.9,6.4,25.9L18,97.1z"/>
	</g>
	<g>
		<path class="st1" d="M39.1,72.3c10.8,10.8,28.4,10.8,39.2,0c10.8-10.8,10.8-28.4,0-39.2C67.5,22.3,28.3,61.5,39.1,72.3z
			 M62.8,56.8c-9.3,9.3-19.2,14.4-22.1,11.5c-2.9-2.9,2.2-12.9,11.5-22.1s19.2-14.4,22.1-11.5C77.2,37.6,72,47.5,62.8,56.8z"/>
		<path class="st2" d="M79.7,73.7c-3.5,3.5-7.6,6-12,7.4c5.4,2.6,12.1,1.7,16.6-2.8c4.5-4.5,5.4-11.2,2.8-16.6
			C85.6,66.1,83.2,70.3,79.7,73.7z"/>
		<path class="st2" d="M86,80.1c-1.4,1.4-3.1,2.5-4.8,3.2l13.6,13.6c4.6-1.2,7.2-3.9,8-8L89.2,75.3C88.5,77,87.4,78.6,86,80.1z"/>
	</g>
</g>
</svg>
