<?xml version="1.0" encoding="utf-8"?>
<!-- Generator: Adobe Illustrator 27.0.0, SVG Export Plug-In . SVG Version: 6.00 Build 0)  -->
<svg version="1.1" id="Layer_1" xmlns="http://www.w3.org/2000/svg" xmlns:xlink="http://www.w3.org/1999/xlink" x="0px" y="0px"
	 viewBox="0 0 140 140" style="enable-background:new 0 0 140 140;" xml:space="preserve">
<style type="text/css">
	.st0{fill:#CCCCCC;}
	.st1{fill:#A7358D;}
	.st2{fill:#FF0089;}
</style>
<g>
	<g>
		<path d="M45.5,120.4c0.6,0.9,0.9,1.9,1,3c0,1.1-0.3,2.1-0.8,3.2c-0.6,1.1-1.3,1.9-2.2,2.4c-0.9,0.5-1.9,0.8-3,0.8
			c-1.1,0-2.2-0.3-3.3-1l-3.7-2l5.8-10.7l3.7,2C44.1,118.8,44.9,119.5,45.5,120.4z M41.1,127.5c0.9-0.3,1.7-1,2.3-2.1
			c0.6-1.1,0.8-2.2,0.5-3.1c-0.3-1-1-1.8-2.1-2.4l-1.5-0.8l-3.8,7.1L38,127C39.1,127.6,40.2,127.8,41.1,127.5z"/>
		<path d="M55.7,131.9l-6.8-2.1c-0.2,0.7-0.1,1.3,0.2,1.8c0.3,0.5,0.7,0.9,1.3,1c0.9,0.3,1.6,0.1,2.2-0.5l2.5,0.8
			c-0.5,0.8-1.3,1.4-2.2,1.7c-0.9,0.3-2,0.3-3.1,0c-0.9-0.3-1.6-0.7-2.2-1.3c-0.6-0.6-1-1.3-1.1-2.2s-0.1-1.7,0.2-2.7
			c0.3-1,0.8-1.7,1.4-2.3c0.6-0.6,1.3-1,2.2-1.2c0.8-0.2,1.7-0.1,2.6,0.2c0.9,0.3,1.6,0.7,2.2,1.3c0.6,0.6,1,1.3,1.1,2.1
			c0.2,0.8,0.1,1.7-0.2,2.6C55.9,131.3,55.8,131.6,55.7,131.9z M53.8,129.6c0.2-0.6,0.1-1.2-0.2-1.6c-0.3-0.5-0.8-0.8-1.4-1
			c-0.6-0.2-1.1-0.2-1.6,0.1c-0.5,0.2-0.9,0.6-1.2,1.2L53.8,129.6z"/>
		<path d="M61.9,123.9l-2.2,12.7l-2.4-0.4l2.2-12.7L61.9,123.9z"/>
		<path d="M66,127.6l-0.9,9.6l-2.4-0.2l0.9-9.6L66,127.6z M63.8,125.9c-0.3-0.3-0.4-0.6-0.3-1.1c0-0.4,0.2-0.7,0.5-1
			c0.3-0.2,0.7-0.4,1.1-0.3c0.4,0,0.8,0.2,1,0.5c0.3,0.3,0.4,0.6,0.3,1.1c0,0.4-0.2,0.7-0.5,1c-0.3,0.2-0.7,0.4-1.1,0.3
			C64.4,126.3,64.1,126.1,63.8,125.9z"/>
		<path d="M72.5,135.1l2.2-7.5l2.6-0.1l-3.2,9.8l-3,0.1l-3.9-9.5l2.6-0.1L72.5,135.1z"/>
		<path d="M88.1,130.9l-6.9,1.5c0.2,0.7,0.6,1.2,1.1,1.4c0.5,0.3,1.1,0.4,1.7,0.2c0.9-0.2,1.4-0.7,1.6-1.6l2.6-0.6
			c-0.1,1-0.4,1.8-1.1,2.6c-0.6,0.8-1.5,1.3-2.7,1.5c-0.9,0.2-1.8,0.2-2.6-0.1s-1.5-0.7-2.1-1.3c-0.6-0.7-1-1.5-1.2-2.4
			c-0.2-1-0.2-1.9,0-2.7s0.7-1.5,1.3-2.1c0.6-0.6,1.4-0.9,2.3-1.1c0.9-0.2,1.7-0.2,2.5,0.1c0.8,0.2,1.5,0.7,2,1.3
			c0.5,0.6,0.9,1.4,1.1,2.3C88.1,130.3,88.1,130.6,88.1,130.9z M85.4,129.8c-0.1-0.6-0.5-1.1-1-1.3c-0.5-0.3-1.1-0.3-1.7-0.2
			c-0.6,0.1-1.1,0.4-1.4,0.9c-0.3,0.4-0.5,1-0.4,1.7L85.4,129.8z"/>
		<path d="M92,123.8c0.4-0.5,0.9-0.8,1.5-1l0.9,2.4l-0.6,0.2c-0.7,0.3-1.2,0.6-1.4,1.1s-0.2,1.1,0.1,2l1.7,4.5l-2.3,0.9l-3.4-9
			l2.3-0.9l0.5,1.4C91.4,124.7,91.6,124.2,92,123.8z"/>
		<path d="M102.8,117.8l1.8,15.4l-2.3,1.3l-0.5-5.2l-8-6.3l2.4-1.3l5.5,4.7l-1.1-7.1L102.8,117.8z"/>
	</g>
	<g>
		<path d="M27.7,20.2c-0.1-1,0-2,0.5-3c0.4-0.9,1.1-1.7,2-2.4c1.1-0.8,2.2-1.2,3.4-1.2c1.2,0,2.3,0.3,3.3,1l-2.2,1.6
			c-0.5-0.3-1.1-0.4-1.7-0.4c-0.6,0.1-1.1,0.3-1.6,0.7c-0.6,0.4-1,0.9-1.2,1.5c-0.2,0.6-0.3,1.2-0.2,1.8s0.4,1.3,0.8,1.9
			c0.5,0.6,1,1.1,1.6,1.4c0.6,0.3,1.2,0.4,1.8,0.4c0.6-0.1,1.2-0.3,1.8-0.7c0.5-0.4,0.9-0.8,1.1-1.3c0.2-0.5,0.3-1.1,0.2-1.7
			l2.2-1.6c0.4,1.2,0.4,2.4,0,3.5c-0.4,1.1-1.1,2.1-2.2,2.8c-0.9,0.7-1.9,1-2.9,1.2c-1,0.1-2,0-3-0.5c-1-0.4-1.8-1.1-2.5-2.1
			C28.2,22.3,27.8,21.3,27.7,20.2z"/>
		<path d="M46.6,11.2l0.8,1.8L41,16l-0.8-1.8L46.6,11.2z"/>
		<path d="M53.3,16c-0.7-0.1-1.3-0.4-1.8-0.8c-0.5-0.4-0.9-1-1.1-1.7l2.4-0.7c0.2,0.5,0.4,0.8,0.8,1s0.8,0.2,1.3,0.1
			c0.5-0.1,0.9-0.4,1.2-0.7c0.2-0.3,0.3-0.7,0.2-1.1c-0.1-0.3-0.3-0.6-0.5-0.7c-0.3-0.2-0.6-0.3-0.9-0.3c-0.3,0-0.8-0.1-1.4-0.1
			c-0.8,0-1.5-0.1-2-0.2s-1-0.3-1.4-0.6c-0.4-0.3-0.8-0.9-1-1.6C49,8,49,7.3,49.2,6.7c0.2-0.6,0.6-1.1,1.1-1.5c0.5-0.4,1.2-0.7,2-1
			c1.2-0.3,2.2-0.3,3.1,0.1c0.9,0.4,1.5,1.1,1.9,2.1l-2.5,0.7c-0.1-0.4-0.4-0.7-0.8-0.8c-0.4-0.2-0.8-0.2-1.3-0.1
			c-0.4,0.1-0.8,0.3-1,0.6s-0.2,0.7-0.1,1.1c0.1,0.3,0.2,0.5,0.5,0.7c0.3,0.1,0.5,0.2,0.9,0.3c0.3,0,0.8,0.1,1.4,0.1
			c0.8,0,1.5,0.1,2,0.2c0.5,0.1,1,0.3,1.5,0.7c0.5,0.3,0.8,0.9,1,1.6c0.2,0.6,0.2,1.2,0,1.8c-0.2,0.6-0.5,1.1-1.1,1.6
			c-0.5,0.5-1.2,0.8-2,1C54.8,16.1,54,16.1,53.3,16z"/>
		<path d="M69.4,9.7l-6.8,0.6c0.1,0.7,0.4,1.2,0.8,1.5c0.4,0.3,1,0.5,1.6,0.4c0.9-0.1,1.5-0.5,1.8-1.3l2.5-0.2
			c-0.2,0.9-0.6,1.7-1.4,2.3c-0.7,0.6-1.6,1-2.7,1.1c-0.9,0.1-1.7-0.1-2.5-0.4c-0.7-0.3-1.3-0.9-1.8-1.5c-0.5-0.7-0.7-1.5-0.8-2.5
			c-0.1-1,0-1.8,0.4-2.6c0.3-0.8,0.8-1.4,1.5-1.8c0.7-0.5,1.5-0.7,2.4-0.8c0.9-0.1,1.7,0,2.4,0.4c0.7,0.3,1.3,0.8,1.8,1.5
			c0.4,0.7,0.7,1.5,0.8,2.4C69.4,9.1,69.4,9.4,69.4,9.7z M66.9,8.3c-0.1-0.6-0.3-1.1-0.8-1.4c-0.5-0.3-1-0.5-1.6-0.4
			c-0.6,0-1.1,0.3-1.4,0.7c-0.4,0.4-0.6,0.9-0.6,1.5L66.9,8.3z"/>
		<path d="M71.7,6.5c0.5-0.7,1-1.2,1.8-1.5c0.7-0.3,1.5-0.5,2.4-0.4c1.2,0.1,2.1,0.5,2.8,1.1c0.7,0.6,1.1,1.5,1.3,2.6l-2.5-0.2
			c-0.1-0.4-0.3-0.8-0.6-1c-0.3-0.3-0.7-0.4-1.2-0.4c-0.7-0.1-1.2,0.1-1.7,0.6c-0.4,0.5-0.7,1.1-0.8,2c-0.1,0.9,0.1,1.6,0.4,2.1
			c0.3,0.5,0.9,0.8,1.5,0.9c1,0.1,1.6-0.3,2-1.1l2.5,0.2c-0.3,1-0.9,1.7-1.7,2.3c-0.8,0.5-1.8,0.7-2.9,0.6c-0.9-0.1-1.7-0.3-2.3-0.8
			s-1.2-1.1-1.5-1.8c-0.3-0.8-0.4-1.6-0.4-2.6C71,8.1,71.2,7.2,71.7,6.5z"/>
		<path d="M85.1,8.3l-1,4.4c-0.1,0.3,0,0.5,0.1,0.7c0.1,0.2,0.3,0.3,0.7,0.4l1.1,0.2l-0.5,1.9L84,15.6c-1.9-0.5-2.7-1.6-2.2-3.5
			l1-4.4l-1.1-0.3l0.4-1.9l1.1,0.3l0.5-2.3l2.3,0.5l-0.5,2.3l2,0.5l-0.4,1.9L85.1,8.3z"/>
		<path d="M92.1,8.3l-3,8.9l-2.2-0.8l3-8.9L92.1,8.3z M90.5,6.2c-0.2-0.3-0.2-0.7-0.1-1.1c0.1-0.4,0.4-0.6,0.7-0.8
			c0.3-0.2,0.7-0.2,1.1,0c0.4,0.1,0.7,0.4,0.9,0.7c0.2,0.3,0.2,0.7,0.1,1.1c-0.1,0.4-0.4,0.6-0.7,0.8s-0.7,0.2-1.1,0
			C90.9,6.8,90.7,6.5,90.5,6.2z"/>
		<path d="M92.7,18.1c-0.5-0.7-0.7-1.4-0.8-2.3c0-0.8,0.1-1.7,0.6-2.5c0.4-0.9,1-1.5,1.7-2c0.7-0.5,1.5-0.7,2.3-0.8
			c0.8,0,1.7,0.1,2.5,0.5c0.8,0.4,1.4,0.9,1.9,1.6c0.5,0.7,0.7,1.4,0.8,2.3c0.1,0.8-0.1,1.7-0.6,2.5c-0.4,0.9-1,1.5-1.7,2
			s-1.5,0.7-2.3,0.7c-0.8,0-1.7-0.2-2.5-0.6C93.8,19.3,93.2,18.8,92.7,18.1z M96.7,18.1c0.4,0,0.8-0.2,1.2-0.4
			c0.4-0.3,0.7-0.7,1-1.2c0.4-0.8,0.5-1.5,0.3-2.1s-0.6-1.1-1.2-1.4c-0.6-0.3-1.2-0.3-1.8-0.1c-0.6,0.2-1.1,0.7-1.5,1.5
			c-0.4,0.8-0.5,1.5-0.3,2.1c0.2,0.6,0.6,1.1,1.2,1.4C95.9,18.1,96.3,18.1,96.7,18.1z"/>
		<path d="M111.5,20.4c0.1,1-0.2,2-0.9,3l-3.3,4.4l-1.9-1.4l3.1-4.1c0.4-0.6,0.6-1.2,0.6-1.7c-0.1-0.5-0.3-1-0.9-1.4
			c-0.5-0.4-1.1-0.5-1.6-0.4s-1,0.4-1.5,1l-3.1,4.1l-1.9-1.4l5.6-7.5l1.9,1.4l-0.7,0.9c0.5-0.1,1-0.1,1.5,0c0.5,0.1,1,0.3,1.5,0.7
			C110.8,18.6,111.3,19.4,111.5,20.4z"/>
	</g>
	<g>
		<path class="st0" d="M33.5,115.2c-13.8-11.1-21.7-27.7-21.7-45.4c0-15.4,6-29.9,16.8-40.9l1.8,1.8c-10.3,10.5-16,24.4-16,39.1
			c0,16.9,7.6,32.8,20.8,43.4L33.5,115.2z"/>
		<path class="st0" d="M27.5,122.5c-16-12.9-25.2-32.1-25.2-52.7c0-17.9,6.9-34.7,19.4-47.4l1.8,1.8C11.5,36.5,4.8,52.7,4.8,69.9
			c0,19.8,8.8,38.3,24.3,50.7L27.5,122.5z"/>
		<path class="st0" d="M112.8,122.3l-1.6-1.9c15.2-12.4,23.9-30.8,23.9-50.5c0-17-6.5-33.1-18.4-45.4l1.8-1.7
			c12.3,12.7,19.1,29.4,19.1,47.1C137.7,90.3,128.6,109.3,112.8,122.3z"/>
		<path class="st0" d="M106.9,114.9l-1.6-1.9c13-10.6,20.4-26.3,20.4-43.1c0-14.5-5.6-28.3-15.7-38.7l1.8-1.7
			c10.6,10.9,16.4,25.3,16.4,40.5C128.2,87.4,120.5,103.8,106.9,114.9z"/>
	</g>
	<g>
		<path class="st1" d="M95,60.4c-4.1,3-9.5,7.2-13,10.6c-2.1,2-4,4.2-5.6,6.1c-0.9,1.1-1.8,2.2-2.7,3.1c0,0,0,0,0,0
			c-1,1-2.3,2.4-3.5,2.5c0,0,0,0,0,0c-0.1,0-0.1,0-0.2,0s-0.1,0-0.2,0c0,0,0,0,0,0c-1.1-0.2-2.5-1.5-3.5-2.5c0,0,0,0,0,0
			c-0.8-0.9-1.7-1.9-2.7-3.1C62,75.2,60.1,73,58,71c-3.6-3.4-8.9-7.5-13-10.6c0.2-0.5,0.4-1,0.6-1.5c0,0,0-0.1,0-0.1
			c0.1-0.2,0.2-0.5,0.3-0.7c0,0,0-0.1,0-0.1c0,0,0-0.1,0-0.1c6.2,4.1,14.9,6.5,24,6.5c9.1,0,17.8-2.3,24-6.5c0,0,0,0.1,0,0.1
			c0,0,0,0.1,0.1,0.1c0.1,0.2,0.2,0.5,0.3,0.7c0,0,0,0.1,0.1,0.1C94.6,59.5,94.8,60,95,60.4z"/>
		<path class="st2" d="M93.2,55.4c-2.4-7.7-2.9-14.1-2.9-16c-6.7-3.3-13.5-5-20.2-5c-6.7,0-13.5,1.7-20.2,5c-0.1,1.9-0.5,8.3-2.9,16
			c-0.1,0.2-0.1,0.4-0.2,0.6c5.9,4.1,14.4,6.4,23.4,6.4c9,0,17.4-2.3,23.4-6.4C93.3,55.8,93.3,55.6,93.2,55.4z M70,47.2
			c0.8,0,1.5,0.7,1.5,1.5s-0.7,1.5-1.5,1.5c-0.8,0-1.5-0.7-1.5-1.5S69.2,47.2,70,47.2z M82.7,56.3c-0.8,0.4-1.7,0.7-2.5,1l0.2,0.7
			c0.1,0.5-0.2,1-0.7,1.2c-0.1,0-0.2,0-0.2,0c-0.4,0-0.8-0.3-0.9-0.7l-0.2-0.6c-0.9,0.2-1.8,0.4-2.7,0.6l0.1,0.6
			c0.1,0.5-0.3,1-0.8,1.1c0,0-0.1,0-0.1,0c-0.5,0-0.9-0.3-0.9-0.8l-0.1-0.6c-0.9,0.1-1.8,0.2-2.8,0.2v0.8c0,0.5-0.4,1-1,1
			c-0.5,0-1-0.4-1-1v-0.8c-0.9,0-1.9-0.1-2.8-0.2l-0.1,0.6c-0.1,0.5-0.5,0.8-0.9,0.8c0,0-0.1,0-0.1,0c-0.5-0.1-0.9-0.6-0.8-1.1
			l0.1-0.6c-0.9-0.2-1.8-0.4-2.7-0.6l-0.2,0.6c-0.1,0.4-0.5,0.7-0.9,0.7c-0.1,0-0.2,0-0.2,0c-0.5-0.1-0.8-0.7-0.7-1.2l0.2-0.7
			c-0.9-0.3-1.7-0.6-2.5-1c-0.5-0.2-0.7-0.8-0.5-1.3c0.2-0.5,0.8-0.7,1.3-0.5c0.7,0.3,1.5,0.6,2.2,0.9l0.2-0.6
			c0.1-0.5,0.7-0.8,1.2-0.7c0.5,0.1,0.8,0.7,0.7,1.2L62.2,56c0.8,0.2,1.7,0.4,2.5,0.5l0.1-0.6c0.1-0.5,0.6-0.9,1.1-0.8
			c0.5,0.1,0.9,0.6,0.8,1.1l-0.1,0.6c0.8,0.1,1.7,0.2,2.5,0.2v-0.5c0-0.5,0.4-1,1-1c0.5,0,1,0.4,1,1V57c0.8,0,1.7-0.1,2.5-0.2
			l-0.1-0.6c-0.1-0.5,0.3-1,0.8-1.1c0.5-0.1,1,0.3,1.1,0.8l0.1,0.6c0.8-0.1,1.7-0.3,2.5-0.5l-0.2-0.7c-0.1-0.5,0.2-1,0.7-1.2
			c0.5-0.1,1,0.2,1.2,0.7l0.2,0.6c0.8-0.3,1.5-0.5,2.2-0.9c0.5-0.2,1,0,1.3,0.5C83.4,55.6,83.2,56.1,82.7,56.3z"/>
		<path class="st2" d="M65.6,104.4c-6.6-0.5-13.2-2.1-19.7-4.9c-0.3-1.3-0.7-2.3-1.1-3.6c-0.9-2.4-2.1-5.7-3.6-13
			c-1.9-8.5,0.6-14.4,3.1-20.7c0,0,0,0,0,0c4,3,9.1,6.9,12.5,10.1c2.1,2,3.9,4.1,5.5,6c0.9,1.1,1.8,2.1,2.6,3
			C66,85.6,67,92.9,65.6,104.4z"/>
		<path class="st2" d="M98.9,82.9c-1.6,7.3-2.8,10.6-3.6,13c-0.5,1.3-0.9,2.4-1.1,3.6c-6.5,2.7-13.2,4.4-19.7,4.9
			C73,92.9,74,85.6,75.2,81.3c0.8-0.9,1.7-1.9,2.6-3c1.6-1.9,3.4-4,5.5-6c3.4-3.2,8.5-7.2,12.5-10.1c0,0,0,0,0,0
			C98.3,68.5,100.8,74.4,98.9,82.9z"/>
	</g>
</g>
</svg>
