<?xml version="1.0" encoding="UTF-8"?>
<svg id="Layer_1" xmlns="http://www.w3.org/2000/svg" version="1.1" viewBox="0 0 240 210">
  <!-- Generator: Adobe Illustrator 29.4.0, SVG Export Plug-In . SVG Version: 2.1.0 Build 152)  -->
  <defs>
    <style>
      .st0 {
        fill: #ff0089;
      }
    </style>
  </defs>
  <path class="st0" d="M93.7,31.1c2,0,3.7,1.7,3.7,3.7s-1.7,3.7-3.7,3.7-3.7-1.7-3.7-3.7,1.7-3.7,3.7-3.7ZM105,31h30v7.5h-30v-7.5ZM146.2,31.1c2,0,3.7,1.7,3.7,3.7s-1.7,3.7-3.7,3.7-3.7-1.7-3.7-3.7,1.7-3.7,3.7-3.7ZM202.5,202.5v-127.5h7.5v-7.5h-15v-21.5h-15v-30h-22.5V1h-75v15h-22.5v30h-15v21.5h-15v7.5h7.5v127.5H0v7.5h240v-7.5h-37.5ZM90,8.5h60v7.5h-60v-7.5ZM67.5,23.5h105v22.5h-105v-22.5ZM52.5,53.5h135v14H52.5v-14ZM82.5,202.5h-37.5v-15h37.5v15ZM82.5,180h-37.5v-37.5h37.5v37.5ZM82.5,135h-37.5v-15h37.5v15ZM97.5,202.5h-7.5v-82.5h7.5v82.5ZM135,202.5h-30v-82.5c0-8.3,6.7-15,15-15s15,6.7,15,15v82.5ZM120,97.5c-9.8,0-18.1,6.3-21.2,15h-8.8v-22.5h60v22.5h-8.8c-3.1-8.7-11.4-15-21.2-15ZM142.5,202.5v-82.5h7.5v82.5h-7.5ZM195,202.5h-37.5v-15h37.5v15ZM195,180h-37.5v-37.5h37.5v37.5ZM195,135h-37.5v-15h37.5v15ZM195,112.5h-37.5v-30h-75v30h-37.5v-37.5h150v37.5ZM63.8,97.5c2.1,0,3.7-1.7,3.7-3.7s-1.7-3.7-3.7-3.7-3.8,1.6-3.8,3.7,1.7,3.7,3.8,3.7ZM176.2,90.1c2,0,3.7,1.7,3.7,3.7s-1.7,3.7-3.7,3.7-3.7-1.7-3.7-3.7,1.7-3.7,3.7-3.7Z"/>
</svg>