<?xml version="1.0" encoding="utf-8"?>
<!-- Generator: Adobe Illustrator 24.2.0, SVG Export Plug-In . SVG Version: 6.00 Build 0)  -->
<svg version="1.1" id="Layer_1" xmlns="http://www.w3.org/2000/svg" xmlns:xlink="http://www.w3.org/1999/xlink" x="0px" y="0px"
	 viewBox="0 0 256.1 67.2" style="enable-background:new 0 0 256.1 67.2;" xml:space="preserve">
<style type="text/css">
	.st0{fill:#964488;}
	.st1{fill:#E53089;}
</style>
<g>
	<g>
		<path class="st0" d="M92.4,40.3c-1.3,4.6-5.5,8.1-10.8,8.1c-6.9,0-11.4-5.3-11.4-11.2c0-6.3,4.8-11.2,11.2-11.2
			c5.1,0,9.6,3.1,11,8.2h-4.2c-1.1-2.8-3.7-4.4-6.6-4.4c-2.1,0-3.7,0.7-5.2,2.1c-1.2,1.2-2.1,3.2-2.1,5.4c0,4.4,3.2,7.5,7.3,7.5
			c3.5,0,5.8-2.2,6.6-4.3H92.4z"/>
		<rect x="95.3" y="18.8" class="st0" width="4.1" height="28.9"/>
		<path class="st0" d="M106.3,37.2c0,4.2,3.2,7.4,7.3,7.4c4.1,0,7.3-3.2,7.3-7.4s-3.2-7.4-7.3-7.4C109.5,29.7,106.3,32.9,106.3,37.2
			L106.3,37.2z M102.2,37.1c0-5.7,4.2-11.2,11.3-11.2c7.1,0,11.3,5.5,11.3,11.2s-4.2,11.2-11.3,11.2
			C106.4,48.3,102.2,42.8,102.2,37.1L102.2,37.1z"/>
		<path class="st0" d="M147.3,47.7h-3.8v-3.3c-1,2.2-3.4,3.9-7.2,3.9c-6.8,0-8.6-5-8.6-9.4V26.5h4.1V38c0,3.8,1.5,6.6,5.7,6.6
			c4,0,5.8-2.6,5.8-6.2V26.5h4.1V47.7z"/>
		<path class="st0" d="M154.2,37.1c0,3.9,2.8,7.5,7.5,7.5c2.1,0,4-0.9,5.3-2.2c1.4-1.4,2.1-3.2,2.1-5.3c0-2.1-0.8-3.9-2.1-5.2
			c-1.3-1.3-3.2-2.1-5.2-2.1C157.1,29.7,154.2,33.1,154.2,37.1L154.2,37.1z M172.8,47.7h-3.9V44c-1.2,2.2-3.6,4.3-7.9,4.3
			c-6.7,0-10.9-5.1-10.9-11.3c0-6.6,4.8-11.2,10.8-11.2c4.3,0,7,2.4,7.8,4.1v-3.7v-7.4h4.1V47.7z"/>
		<path class="st1" d="M177,26.5h3.8v3.3c1-2.2,3.4-3.9,7.2-3.9c6.8,0.1,8.6,5,8.6,9.4v12.5h-4.1V36.2c0-3.8-1.5-6.6-5.6-6.5
			c-4,0-5.8,2.5-5.8,6.2v11.8H177V26.5z"/>
		<path class="st1" d="M200.5,26.5h4.1v21.2h-4.1V26.5z M200.5,18.8h4.1v4.3h-4.1V18.8z"/>
		<path class="st1" d="M208.7,26.5h3.8v3.3c1-2.2,3.4-3.9,7.2-3.9c6.8,0.1,8.6,5,8.6,9.4v12.5h-4.1V36.2c0-3.8-1.5-6.6-5.6-6.5
			c-4,0-5.8,2.5-5.8,6.2v11.8h-4.1V26.5z"/>
		<path class="st1" d="M248.8,35.2c-0.2-2.8-3-6-7-5.9c-4.1,0-6.8,3-7,5.9H248.8z M234.7,38.4c0.2,4.3,3.9,6.5,7.1,6.5
			c2.8,0,5-1.4,6.1-3.6h4.2c-1,2.3-2.5,4.1-4.3,5.3c-1.8,1.2-3.9,1.8-6,1.8c-6.9,0-11.2-5.6-11.2-11.2c0-6.1,4.8-11.3,11.2-11.3
			c3,0,5.8,1.1,7.8,3.1c2.5,2.5,3.6,5.9,3.2,9.4H234.7z"/>
	</g>
	<g>
		<path class="st0" d="M23.8,14.2c-6.1,6.1-9.3,13.2-10.6,19.8c-1.8,9.4,0.3,17.1,4.4,20.6c3.1,2.7,8.4,4.5,15.3,0.9
			c5.1-2.7,7.7-6.2,9.3-8.1c0.4-0.5,1.2-0.3,0.5,0.8c-1.1,1.7-6.6,10.4-16,13.9c-6.9,2.8-14.6,2-19.3-3.6c-2-2.4-3.3-5.4-3.9-9.1
			c-0.7-4.8-0.4-10.7,2.4-17.9c2.1-5.5,5.2-10.5,8.8-14.7c2.9-3.4,6-6.3,9.8-8.7c4.2-2.6,8.3-4.2,12.7-4.5c0.9-0.1,1.8,0,2.8,0
			c1.7,0.1,3.8,0.7,5.1,1.4c5,2.5,6.6,7.6,4.9,12.5c-1.6,4-3.8,6.3-6.4,8.1c-2.4,1.6-5.3,2.1-7.4,0.9c-1.3-0.7-2.4-2.1-2.6-4.3
			c-0.7-5.9,3.4-10.7,3.9-11.1c1.4-1.8,2.6-2.2,2.5-2.9c-0.3-0.9-3.3-0.7-3.6-0.7C29.2,8.3,23.8,14.2,23.8,14.2"/>
		<path class="st1" d="M37.3,43.9c-2.9,1-5.3-0.8-5.3-4c0-3.5,2.2-7.1,5.3-8.9c3-1.8,5.9-0.8,6.5,2.5c1.2,6.1-2.3,14.8-10.3,19.8
			c-3.9,2.4-7.9,2.4-10.2,1c-0.9-0.5-2.3-1.7-3-3.8c-0.8-2.3,0.1-2.4,0.4-1.6c0.5,2.2,4,7.4,12.4,1.3c2.2-1.8,3.5-3.6,4.3-5
			c0.1-0.1,0.5-0.8,0.5-0.9c0.1-0.3-0.1-0.5-0.3-0.5C37.5,43.7,37.3,43.9,37.3,43.9"/>
	</g>
</g>
</svg>
